name Walk4.mot
datacolumns 19
datarows 17
range 1.75800000 1.77400000
endheader

                time	   L_ground_force_vx	   L_ground_force_vy	   L_ground_force_vz	   L_ground_force_px	   L_ground_force_py	   L_ground_force_pz	   R_ground_force_vx	   R_ground_force_vy	   R_ground_force_vz	   R_ground_force_px	   R_ground_force_py	   R_ground_force_pz	   L_ground_torque_x	   L_ground_torque_y	   L_ground_torque_z	   R_ground_torque_x	   R_ground_torque_y	   R_ground_torque_z	
          1.75800000	        -33.57985573	        558.23888922	        -37.61255578	          0.13030797	          0.00000000	          0.06411283	          0.00000000	          0.00000000	          0.00000000	          0.00000000	          0.00000000	          0.00000000	          0.00000000	          1.44712711	          0.00000000	          0.00000000	          0.00000000	          0.00000000	
          1.75900000	        -33.33508808	        558.34507758	        -37.60845716	          0.13075472	          0.00000000	          0.06409311	          0.00000000	          0.00000000	          0.00000000	          0.00000000	          0.00000000	          0.00000000	          0.00000000	          1.46900876	          0.00000000	          0.00000000	          0.00000000	          0.00000000	
          1.76000000	        -33.08784823	        558.44940456	        -37.60502989	          0.13117333	          0.00000000	          0.06405048	          0.00000000	          0.00000000	          0.00000000	          0.00000000	          0.00000000	          0.00000000	          0.00000000	          1.48422715	          0.00000000	          0.00000000	          0.00000000	          0.00000000	
          1.76100000	        -32.83091490	        558.55217751	        -37.60539098	          0.13159678	          0.00000000	          0.06398226	          0.00000000	          0.00000000	          0.00000000	          0.00000000	          0.00000000	          0.00000000	          0.00000000	          1.49335823	          0.00000000	          0.00000000	          0.00000000	          0.00000000	
          1.76200000	        -32.56600551	        558.66661232	        -37.61496264	          0.13204277	          0.00000000	          0.06389794	          0.00000000	          0.00000000	          0.00000000	          0.00000000	          0.00000000	          0.00000000	          0.00000000	          1.50644796	          0.00000000	          0.00000000	          0.00000000	          0.00000000	
          1.76300000	        -32.30231952	        558.81000489	        -37.63910225	          0.13251387	          0.00000000	          0.06381129	          0.00000000	          0.00000000	          0.00000000	          0.00000000	          0.00000000	          0.00000000	          0.00000000	          1.53091198	          0.00000000	          0.00000000	          0.00000000	          0.00000000	
          1.76400000	        -32.03891778	        558.98551004	        -37.66997270	          0.13300434	          0.00000000	          0.06371776	          0.00000000	          0.00000000	          0.00000000	          0.00000000	          0.00000000	          0.00000000	          0.00000000	          1.56247801	          0.00000000	          0.00000000	          0.00000000	          0.00000000	
          1.76500000	        -31.76103467	        559.17748662	        -37.68389021	          0.13349250	          0.00000000	          0.06360844	          0.00000000	          0.00000000	          0.00000000	          0.00000000	          0.00000000	          0.00000000	          0.00000000	          1.59321474	          0.00000000	          0.00000000	          0.00000000	          0.00000000	
          1.76600000	        -31.45812658	        559.36114067	        -37.66996178	          0.13395680	          0.00000000	          0.06348923	          0.00000000	          0.00000000	          0.00000000	          0.00000000	          0.00000000	          0.00000000	          0.00000000	          1.62077922	          0.00000000	          0.00000000	          0.00000000	          0.00000000	
          1.76700000	        -31.13267611	        559.52053119	        -37.64595896	          0.13439991	          0.00000000	          0.06336909	          0.00000000	          0.00000000	          0.00000000	          0.00000000	          0.00000000	          0.00000000	          0.00000000	          1.64485762	          0.00000000	          0.00000000	          0.00000000	          0.00000000	
          1.76800000	        -30.78849442	        559.64983192	        -37.63452654	          0.13483095	          0.00000000	          0.06324386	          0.00000000	          0.00000000	          0.00000000	          0.00000000	          0.00000000	          0.00000000	          0.00000000	          1.66441173	          0.00000000	          0.00000000	          0.00000000	          0.00000000	
          1.76900000	        -30.42471015	        559.74490654	        -37.64439483	          0.13524928	          0.00000000	          0.06310082	          0.00000000	          0.00000000	          0.00000000	          0.00000000	          0.00000000	          0.00000000	          0.00000000	          1.68150134	          0.00000000	          0.00000000	          0.00000000	          0.00000000	
          1.77000000	        -30.04490111	        559.80875519	        -37.67665369	          0.13565600	          0.00000000	          0.06292907	          0.00000000	          0.00000000	          0.00000000	          0.00000000	          0.00000000	          0.00000000	          0.00000000	          1.70006512	          0.00000000	          0.00000000	          0.00000000	          0.00000000	
          1.77100000	        -29.66152100	        559.85626804	        -37.72840068	          0.13604555	          0.00000000	          0.06272414	          0.00000000	          0.00000000	          0.00000000	          0.00000000	          0.00000000	          0.00000000	          0.00000000	          1.72141075	          0.00000000	          0.00000000	          0.00000000	          0.00000000	
          1.77200000	        -29.29368579	        559.91123732	        -37.78959272	          0.13639495	          0.00000000	          0.06249670	          0.00000000	          0.00000000	          0.00000000	          0.00000000	          0.00000000	          0.00000000	          0.00000000	          1.74385146	          0.00000000	          0.00000000	          0.00000000	          0.00000000	
          1.77300000	        -28.96043173	        559.99762223	        -37.85034506	          0.13668782	          0.00000000	          0.06227651	          0.00000000	          0.00000000	          0.00000000	          0.00000000	          0.00000000	          0.00000000	          0.00000000	          1.76489098	          0.00000000	          0.00000000	          0.00000000	          0.00000000	
          1.77400000	        -28.66209780	        560.13384157	        -37.90746457	          0.13694541	          0.00000000	          0.06210050	          0.00000000	          0.00000000	          0.00000000	          0.00000000	          0.00000000	          0.00000000	          0.00000000	          1.78406102	          0.00000000	          0.00000000	          0.00000000	          0.00000000	
